<?xml version="1.0" encoding="UTF-8"?>
<svg id="Capa_2" data-name="Capa 2" xmlns="http://www.w3.org/2000/svg" xmlns:xlink="http://www.w3.org/1999/xlink" viewBox="0 0 1007.5 947.08">
  <defs>
    <style>
      .cls-1 {
        fill: #e5a7a8;
      }

      .cls-2 {
        fill: #c7dbf5;
      }

      .cls-3 {
        fill: #589bad;
      }

      .cls-4 {
        fill: #27222e;
      }

      .cls-5 {
        fill: #fff;
      }

      .cls-6 {
        fill: #344b7e;
      }

      .cls-7 {
        clip-path: url(#clippath-1);
      }

      .cls-8 {
        fill: #cedded;
      }

      .cls-9 {
        fill: #20375e;
      }

      .cls-10 {
        fill: #98b6ee;
      }

      .cls-11 {
        fill: #182543;
      }

      .cls-12 {
        fill: #84aad7;
      }

      .cls-13 {
        fill: #279aff;
      }

      .cls-14 {
        fill: #dae6f5;
      }

      .cls-15 {
        fill: #edbba0;
      }

      .cls-16 {
        fill: #f2d279;
      }

      .cls-17 {
        fill: #1e3248;
      }

      .cls-18 {
        fill: #688bcf;
      }

      .cls-19 {
        fill: #e9c66f;
      }

      .cls-20 {
        fill: #6cbeca;
      }

      .cls-21 {
        fill: #ebb197;
      }

      .cls-22 {
        clip-path: url(#clippath);
      }

      .cls-23 {
        fill: #161616;
      }
    </style>
    <clipPath id="clippath">
      <path class="cls-15" d="M405.43,116.84c6.35,7.63,17.68,8.67,25.31,2.33,7.63-6.35,8.67-17.68,2.33-25.31-6.35-7.63-17.68-8.67-25.31-2.33-7.63,6.35-8.67,17.68-2.33,25.31Z"/>
    </clipPath>
    <clipPath id="clippath-1">
      <path class="cls-15" d="M66.43,693.08c-1.64,9.88-10.97,16.56-20.85,14.92-9.88-1.64-16.56-10.97-14.92-20.85,1.64-9.88,10.97-16.56,20.85-14.92,9.88,1.64,16.56,10.97,14.92,20.85Z"/>
    </clipPath>
  </defs>
  <g id="Capa_1-2" data-name="Capa 1">
    <g>
      <path class="cls-2" d="M84.95,659.43h723.36v62.14c0,6.04-4.9,10.94-10.94,10.94H95.89c-6.04,0-10.94-4.9-10.94-10.94v-62.14h0Z"/>
      <rect class="cls-12" x="373.84" y="732.52" width="148.45" height="63.95"/>
      <path class="cls-6" d="M95.06,237.9h703.14c5.58,0,10.11,4.53,10.11,10.11v412.6H84.95V248.01c0-5.58,4.53-10.11,10.11-10.11Z"/>
      <rect class="cls-14" x="114.34" y="268.31" width="669.11" height="366.2"/>
      <path class="cls-5" d="M462.97,692.7c0,9.02-7.32,16.34-16.34,16.34s-16.34-7.32-16.34-16.34,7.32-16.34,16.34-16.34,16.34,7.32,16.34,16.34Z"/>
      <rect class="cls-5" x="413.18" y="301.66" width="329.22" height="296.03" rx="3.08" ry="3.08"/>
      <rect class="cls-5" x="158.74" y="438.05" width="220.58" height="159.64" rx="3.07" ry="3.07"/>
      <path class="cls-20" d="M889.83,516.28h-.09c10.83-11.31,5.74-23.81,3.77-27.61,0,0,0-.01-.01-.02-.38-.73-.65-1.17-.65-1.17l.1.02c-3.14-6.19-4.94-13.16-4.94-20.58,0-12.6,5.11-24,13.36-32.25,7.58-10.04,1.84-23.39,1.84-23.39h.02c-1.18-3.36-1.86-6.95-1.86-10.72,0-17.81,14.44-32.25,32.25-32.25s32.25,14.44,32.25,32.25c0,3.76-.68,7.36-1.86,10.72h.02s-5.74,13.35,1.84,23.39c8.25,8.25,13.36,19.66,13.36,32.25,0,7.41-1.8,14.38-4.94,20.56h.03s-.06.08-.14.23c-.26.5-.51,1.01-.79,1.5-2.03,4.19-5.93,15.36,3,25.84.27.32.56.64.82.97.08.09.14.18.23.27h-.03c7.72,9.61,12.36,21.8,12.36,35.09,0,31.01-25.14,56.15-56.15,56.15s-56.15-25.14-56.15-56.15c0-13.29,4.64-25.48,12.36-35.1Z"/>
      <path class="cls-3" d="M917.11,546.58l13.75,13.61v-47.81l-16.89-16.71c-.88-.87-.88-2.28-.02-3.15.87-.88,2.28-.88,3.15-.02l13.75,13.6v-65.95c0-1.23,1-2.23,2.23-2.23s2.23,1,2.23,2.23v39.74l13.37-13.3c.87-.87,2.28-.87,3.15,0,.87.87.87,2.28,0,3.15l-16.52,16.43v48.02l14.78-14.93c.86-.88,2.27-.88,3.15-.02.88.87.88,2.28.02,3.15l-17.95,18.14v127.38c0,1.23-1,2.23-2.23,2.23s-2.23-1-2.23-2.23v-101.46l-16.89-16.71c-.88-.87-.88-2.28-.02-3.15.87-.88,2.28-.88,3.15-.02Z"/>
      <path class="cls-8" d="M986.44,672.16h-73.67c-1.37,0-2.48-1.11-2.48-2.48s1.11-2.48,2.48-2.48h73.67c1.37,0,2.48,1.11,2.48,2.48s-1.11,2.48-2.48,2.48Z"/>
      <rect class="cls-14" x="183.83" y="541.45" width="170.21" height="9.55" rx="1.04" ry="1.04"/>
      <rect class="cls-14" x="183.83" y="563.88" width="100.94" height="9.55" rx="1.04" ry="1.04"/>
      <circle class="cls-14" cx="208.51" cy="486.8" r="30.32" transform="translate(-192.47 140.87) rotate(-26.03)"/>
      <path class="cls-8" d="M901.9,822.93H2.21c-1.22,0-2.21-.99-2.21-2.21s.99-2.21,2.21-2.21h899.69c1.22,0,2.21.99,2.21,2.21s-.99,2.21-2.21,2.21Z"/>
      <rect class="cls-13" x="587.3" y="459.71" width="109.71" height="109.71" rx="4.52" ry="4.52"/>
      <rect class="cls-18" x="506.96" y="868.96" width="115.94" height="53.36" rx="3.24" ry="3.24"/>
      <rect class="cls-13" x="506.96" y="854.74" width="115.94" height="53.36" rx="3.24" ry="3.24"/>
      <path class="cls-15" d="M654.17,543.34c5.45.08,9.88,4.69,9.91,10.28.02,5.59-4.37,10.06-9.82,9.98s-9.88-4.69-9.91-10.28,4.37-10.06,9.82-9.98Z"/>
      <path class="cls-15" d="M841.39,616.48c-3.26-3.66-8.81-3.67-12.39-.03-3.58,3.64-3.84,9.55-.58,13.21,3.26,3.66,8.81,3.67,12.39.03,3.58-3.64,3.84-9.55.58-13.21Z"/>
      <path class="cls-16" d="M797.54,655.74l-31.96-27.53c-4.04-2.59-8.93-1.07-10.93,3.4-2,4.47-.35,10.19,3.69,12.78l31.96,27.53c6.57,4.22,14.59,3.06,19.5-2.81l26.77-33.44-12.88-12.51-26.15,32.58Z"/>
      <polygon class="cls-15" points="723.9 872.34 736.77 871.86 736.57 849.22 723.48 849.8 723.9 872.34"/>
      <path class="cls-4" d="M702.97,882.91l34.03-.39-.21-14.91-20.52.22c-7.42.08-13.37,6.83-13.3,15.09h0Z"/>
      <polygon class="cls-15" points="781.15 872.34 768.28 871.86 765.58 849.22 778.67 849.8 781.15 872.34"/>
      <path class="cls-4" d="M802.08,882.91l-32.82-.4-1.48-14.91,21,.22c7.42.08,13.37,6.83,13.3,15.09h0Z"/>
      <polygon class="cls-9" points="723.05 696.45 745.41 695.61 747.73 695.53 770.09 694.69 770.36 727.4 724.75 729.1 723.05 696.45"/>
      <path class="cls-9" d="M763.84,860.03l20.31-.14-10.69-84.21-3.38-80.99-21.56,3.53,2.92,78.22c-.02.89.05,1.79.23,2.66l12.16,80.93Z"/>
      <path class="cls-9" d="M719.41,859.07l19.35.17-2.86-80.21,10.81-80.16-23.67-2.42-9.13,81.18c-.09.8-.09,1.62-.02,2.42l5.51,79.02Z"/>
      <rect class="cls-15" x="740.17" y="613.73" width="13.16" height="17.68"/>
      <path class="cls-15" d="M733.65,603.1c0,2.42-1.96,4.37-4.37,4.37s-4.37-1.96-4.37-4.37,1.96-4.37,4.37-4.37,4.37,1.96,4.37,4.37Z"/>
      <path class="cls-15" d="M768.81,603.1c0,2.42-1.96,4.37-4.37,4.37s-4.37-1.96-4.37-4.37,1.96-4.37,4.37-4.37,4.37,1.96,4.37,4.37Z"/>
      <path class="cls-11" d="M764.82,599.33c0,9.93-8.05,17.98-17.98,17.98s-17.98-8.05-17.98-17.98,8.05-17.98,17.98-17.98,17.98,8.05,17.98,17.98Z"/>
      <path class="cls-16" d="M770.13,698.65h-47.5l-1.83-55.85c0-9.36,5.82-16.95,14.61-16.95h21.94c8.79,0,14.61,7.59,14.61,16.95l-1.83,55.85Z"/>
      <path class="cls-16" d="M723.52,646.33l-35.66-36.96c-.17-.18-.34-.36-.49-.55l-34.99-42.3,14.94-12.36,34.75,42.02,35.4,36.69-13.95,13.46Z"/>
      <polygon class="cls-15" points="525.8 290.82 538.33 290.35 532.93 268.31 520.19 268.88 525.8 290.82"/>
      <path class="cls-4" d="M505.42,301.11l33.13-.38-.2-14.52-19.98.21c-7.22.08-13.02,6.65-12.95,14.68h0Z"/>
      <polygon class="cls-21" points="467.22 224.91 479.75 224.45 472.76 205.44 460.02 206.01 467.22 224.91"/>
      <path class="cls-23" d="M447.78,238.24l33.13-.38-.2-14.52-19.98.21c-7.22.08-13.02,6.65-12.95,14.69h0Z"/>
      <path class="cls-17" d="M533.5,150.73l-83.55,26.07,7.1-16.85,23.99,55.36-21.41,1.26-26.17-46.73c-2.83-6.09-.23-13.32,5.8-16.22l1.3-.63,78.86-37.95,14.07,35.69Z"/>
      <path class="cls-1" d="M376,190.53c-3.17-3.56-8.57-3.57-12.06-.03-3.49,3.54-3.74,9.3-.57,12.86,3.17,3.56,8.57,3.57,12.06.03,3.49-3.54,3.74-9.3.57-12.86Z"/>
      <path class="cls-19" d="M381.48,200.81l-10.58-15.67,44.84-30.26,29.65-49.42,16.21,9.73-30.73,51.22c-.71,1.18-1.67,2.2-2.82,2.97l-46.58,31.43Z"/>
      <polygon class="cls-15" points="434.18 105.45 444.43 105.6 447.78 119.09 428.43 115.96 434.18 105.45"/>
      <path class="cls-15" d="M399.41,110.17l2.93-3.43,4.53,3.86-3.17,2.64-3.16-.29c-1.36-.13-2.02-1.73-1.13-2.77Z"/>
      <g>
        <path class="cls-15" d="M405.43,116.84c6.35,7.63,17.68,8.67,25.31,2.33,7.63-6.35,8.67-17.68,2.33-25.31-6.35-7.63-17.68-8.67-25.31-2.33-7.63,6.35-8.67,17.68-2.33,25.31Z"/>
        <g class="cls-22">
          <polygon class="cls-11" points="403.75 87.65 441.57 116.65 435.43 85.77 403.75 87.65"/>
        </g>
      </g>
      <path class="cls-15" d="M422.33,104.82c1.78,2.14,4.95,2.43,7.09.65,2.14-1.78,2.43-4.95.65-7.09-1.78-2.14-4.95-2.43-7.09-.65-2.14,1.78-2.43,4.95-.65,7.09Z"/>
      <path class="cls-16" d="M504.39,102.39l.37,37.67-53.69,8.37-10.24-42.88,4.38-1.92c8.19-3.6,17.28-4.63,26.07-2.96l8.41.73,24.69,1Z"/>
      <path class="cls-9" d="M504.76,140.07l37.59,2.55v-3.65c.06-20.77-17.21-37.4-37.97-36.57h0l.37,37.67Z"/>
      <path class="cls-9" d="M542.36,142.61l-26.18,55.21.29-7.15,19.35,87.99-20.32.24-23.49-82.05c-.49-1.71-.52-3.45-.17-5.07l.46-2.08,12.68-57.72,37.39,10.63Z"/>
      <path class="cls-5" d="M485.43,261.76l-274.99-52.63c-1.42-.27-2.35-1.64-2.08-3.07l9.22-48.16c.27-1.42,1.64-2.35,3.07-2.08l274.99,52.63c1.42.27,2.35,1.64,2.08,3.07l-9.22,48.16c-.27,1.42-1.64,2.35-3.07,2.08Z"/>
      <path class="cls-10" d="M478.16,245.64l-6.11-9.86c1.88-1.77,3.24-4.12,3.76-6.84,1.32-6.91-3.22-13.6-10.13-14.92-6.91-1.32-13.6,3.22-14.92,10.13-1.32,6.91,3.22,13.6,10.13,14.92,2.74.52,5.44.11,7.79-.99l6.02,9.71,3.46-2.14ZM471.81,228.18c-.9,4.7-5.46,7.8-10.16,6.9-4.7-.9-7.8-5.46-6.9-10.16.9-4.7,5.46-7.8,10.16-6.9,4.7.9,7.8,5.46,6.9,10.16Z"/>
      <path class="cls-15" d="M429.33,229.29c-3.17-3.56-8.57-3.57-12.06-.03-3.49,3.54-3.74,9.3-.57,12.86,3.17,3.56,8.57,3.57,12.06.03,3.49-3.54,3.74-9.3.57-12.86Z"/>
      <path class="cls-16" d="M434.91,234.1l-15.59-10.69,34.36-50.09-9.04-52.44,18.63-3.21,9.69,56.22c.42,2.43-.13,4.92-1.52,6.95l-36.53,53.26Z"/>
      <path class="cls-2" d="M585.8,817.87h-278.17c0-11.82,9.58-21.41,21.41-21.41h235.36c11.82,0,21.41,9.58,21.41,21.41h0Z"/>
      <path class="cls-15" d="M128.24,918.43c-.04-1.05-2.43-26.77-2.43-26.77l13.37-2.68,2.6,26.76-13.53,2.7Z"/>
      <path class="cls-23" d="M166.67,916.57l-37.27,7.64-2.29-11.45,25.74-5.27c6.33-1.31,12.52,2.76,13.83,9.09h0Z"/>
      <path class="cls-17" d="M78.46,773.57l52.44,40.23,1.66,1.27c2.83,2.17,4.46,5.39,4.75,8.69l6.4,73.74-18.61,2.76-12.45-75.76,6.41,9.96-62.06-25.97,21.46-34.92Z"/>
      <path class="cls-19" d="M44.93,797.66l45.22-16.09c3.77-1.17,5.89-5.18,4.72-8.95l-19.19-61.94-36.1,11.19c-12.96,4.01-20.2,17.77-16.19,30.73l21.55,45.06Z"/>
      <path class="cls-13" d="M181.11,782.06l-89.47,22.5c-2.22.56-4.47-.79-5.03-3.01l-22.5-89.47c-.56-2.22.79-4.47,3.01-5.03l89.47-22.5c2.22-.56,4.47.79,5.03,3.01l22.5,89.47c.56,2.22-.79,4.47-3.01,5.03Z"/>
      <path class="cls-15" d="M44.6,939.84c.24-1.02,3.9-26.42,3.9-26.42l13.6.99-3.73,26.45-13.76-1.01Z"/>
      <path class="cls-4" d="M82.56,947.08l-38.05-.1.08-11.68,26.27.07c6.46,0,11.7,5.25,11.69,11.71h0Z"/>
      <path class="cls-9" d="M76.12,783.73l6.66,52.99.47,2.72c.23,1.32.17,2.67-.11,3.9l-17.24,81.83-20.34-1.49,11.27-83.02.36,6.61-12.67-51.55,31.6-11.99Z"/>
      <path class="cls-15" d="M132.81,757.22c-1.13,4.8-5.94,7.78-10.75,6.65-4.8-1.13-7.78-5.94-6.65-10.75,1.13-4.8,5.94-7.78,10.75-6.65,4.8,1.13,7.78,5.94,6.65,10.75Z"/>
      <polygon class="cls-15" points="118.82 750.35 100.9 760.15 106.54 768.41 127.56 758.7 118.82 750.35"/>
      <path class="cls-15" d="M68.27,684.21l-4.3-1.49-1.98,5.67,4.11.68,2.6-1.86c1.12-.8.87-2.54-.43-2.99Z"/>
      <g>
        <path class="cls-15" d="M66.43,693.08c-1.64,9.88-10.97,16.56-20.85,14.92-9.88-1.64-16.56-10.97-14.92-20.85,1.64-9.88,10.97-16.56,20.85-14.92,9.88,1.64,16.56,10.97,14.92,20.85Z"/>
        <g class="cls-7">
          <polygon class="cls-11" points="53.02 666.81 34.86 711.33 24.48 681.32 53.02 666.81"/>
        </g>
      </g>
      <path class="cls-15" d="M45.59,691.23c-.46,2.77-3.07,4.64-5.84,4.18-2.77-.46-4.64-3.07-4.18-5.84.46-2.77,3.07-4.64,5.84-4.18,2.77.46,4.64,3.07,4.18,5.84Z"/>
      <path class="cls-11" d="M33.2,703.34c-3.47,8.04-12.81,11.75-20.86,8.28-8.04-3.47-11.75-12.81-8.28-20.86,3.47-8.04,12.81-11.75,20.86-8.28,8.04,3.47,11.75,12.81,8.28,20.86Z"/>
      <path class="cls-15" d="M56.38,705.28c.07,1.05,1.79,25.1,1.79,25.1l-16.43-9.34.61-15.34,14.03-.42Z"/>
      <path class="cls-16" d="M67.21,797.71c-3.31.11-6.59-1.41-8.62-4.3l-31.97-45.64c-3.2-4.57-2.09-10.87,2.48-14.07h0c4.57-3.2,10.87-2.09,14.07,2.48l26.66,38.07,39.13-22.53,10.08,17.51-47.14,27.14c-1.48.85-3.09,1.29-4.7,1.34Z"/>
      <rect class="cls-5" x="160.6" y="345.56" width="177.47" height="9.55" rx="1.04" ry="1.04"/>
      <rect class="cls-5" x="160.6" y="405.71" width="177.47" height="9.55" rx="1.04" ry="1.04"/>
      <rect class="cls-5" x="160.6" y="375.51" width="217.52" height="9.55" rx="1.04" ry="1.04"/>
      <path class="cls-5" d="M638.96,33.69h-112.16S535.02,0,564.03,0c21.49,0,32.65,13.59,36.99,20.64,8.48-3.32,26.73-7.34,37.94,13.05"/>
      <path class="cls-5" d="M802.68,141.09c5.52,0,10.69,1.5,15.17,4.09,8.57-14.95,24.38-25.01,42.52-25.01,16.94,0,31.88,8.76,40.76,22.09,4.69-16.06,19.2-27.77,36.4-27.77,19.52,0,35.58,15.08,37.74,34.49,1.57-.25,3.17-.42,4.81-.42,11.91,0,22.23,6.89,27.41,16.99h-234.93c3.21-14.01,15.46-24.46,30.11-24.46Z"/>
    </g>
  </g>
</svg>